<svg xmlns="http://www.w3.org/2000/svg" width="1200" height="540" viewBox="0 0 1200 540" role="img" aria-labelledby="t d" font-family="-apple-system, BlinkMacSystemFont, 'Segoe UI', Helvetica, Arial, sans-serif">
  <title id="t">Emad's toolbox</title>
  <desc id="d">BACKEND: Python, FastAPI, Flask, pyTelegramBotAPI, SQLite, PostgreSQL. TELEGRAM: Bot API, Mini Apps, Webhooks, Inline UI, Payments, Premium emoji. FRONTEND: React, TypeScript, TanStack, Tailwind, Bootstrap, WordPress. INFRA: Linux, systemd, Nginx, Docker, Cloudflare, Bash, Ubuntu, Backups. VPN &amp; NETWORK: Xray, 3x-ui, PasarGuard, Marzban, Reality, SSH tunnels, Hiddify, WireGuard. AI &amp; TOOLING: Claude Code, Agent skills, Go, GitHub Actions, Git, MCP, Codex.</desc>
  <defs><linearGradient id="bg" x1="0" y1="0" x2="1" y2="1"><stop offset="0" stop-color="#0F1226"/><stop offset="1" stop-color="#090B14"/></linearGradient></defs>
  <rect width="1200" height="540" rx="24" fill="url(#bg)"/>
  <rect x=".5" y=".5" width="1199" height="539" rx="23.5" fill="none" stroke="#202440"/>
  <text x="48" y="54" font-family="ui-monospace, SFMono-Regular, Menlo, Consolas, monospace" font-size="12" letter-spacing="2.4" fill="#8C8FD4">TOOLBOX</text>
  <text x="1152" y="54" font-family="ui-monospace, SFMono-Regular, Menlo, Consolas, monospace" font-size="12" text-anchor="end" fill="#777CAD">what the products are made of</text>
    <g transform="translate(48 84)">
      <rect x=".5" y=".5" width="351" height="195" rx="16" fill="#12152C" stroke="#2A2F55"/>
      <circle cx="26" cy="31" r="5" fill="#6C8CFF"/>
      <text x="40" y="36" font-family="ui-monospace, SFMono-Regular, Menlo, Consolas, monospace" font-size="12" letter-spacing="2.2" fill="#6C8CFF">BACKEND</text>
      <rect x="20" y="58" width="74.6" height="30" rx="9" fill="#6C8CFF" fill-opacity=".09" stroke="#6C8CFF" stroke-opacity=".35"/><text x="57.3" y="78" text-anchor="middle" font-size="13" font-weight="600" fill="#E6E6E7">Python</text>
      <rect x="102.6" y="58" width="82.69999999999999" height="30" rx="9" fill="#6C8CFF" fill-opacity=".09" stroke="#6C8CFF" stroke-opacity=".35"/><text x="143.95" y="78" text-anchor="middle" font-size="13" font-weight="600" fill="#E6E6E7">FastAPI</text>
      <rect x="193.29999999999998" y="58" width="66.5" height="30" rx="9" fill="#6C8CFF" fill-opacity=".09" stroke="#6C8CFF" stroke-opacity=".35"/><text x="226.54999999999998" y="78" text-anchor="middle" font-size="13" font-weight="600" fill="#E6E6E7">Flask</text>
      <rect x="20" y="98" width="155.6" height="30" rx="9" fill="#6C8CFF" fill-opacity=".09" stroke="#6C8CFF" stroke-opacity=".35"/><text x="97.8" y="118" text-anchor="middle" font-size="13" font-weight="600" fill="#E6E6E7">pyTelegramBotAPI</text>
      <rect x="183.6" y="98" width="74.6" height="30" rx="9" fill="#6C8CFF" fill-opacity=".09" stroke="#6C8CFF" stroke-opacity=".35"/><text x="220.89999999999998" y="118" text-anchor="middle" font-size="13" font-weight="600" fill="#E6E6E7">SQLite</text>
      <rect x="20" y="138" width="107" height="30" rx="9" fill="#6C8CFF" fill-opacity=".09" stroke="#6C8CFF" stroke-opacity=".35"/><text x="73.5" y="158" text-anchor="middle" font-size="13" font-weight="600" fill="#E6E6E7">PostgreSQL</text>
    </g>
    <g transform="translate(424 84)">
      <rect x=".5" y=".5" width="351" height="195" rx="16" fill="#12152C" stroke="#2A2F55"/>
      <circle cx="26" cy="31" r="5" fill="#4FD1C5"/>
      <text x="40" y="36" font-family="ui-monospace, SFMono-Regular, Menlo, Consolas, monospace" font-size="12" letter-spacing="2.2" fill="#4FD1C5">TELEGRAM</text>
      <rect x="20" y="58" width="82.69999999999999" height="30" rx="9" fill="#4FD1C5" fill-opacity=".09" stroke="#4FD1C5" stroke-opacity=".35"/><text x="61.349999999999994" y="78" text-anchor="middle" font-size="13" font-weight="600" fill="#E6E6E7">Bot API</text>
      <rect x="110.69999999999999" y="58" width="98.89999999999999" height="30" rx="9" fill="#4FD1C5" fill-opacity=".09" stroke="#4FD1C5" stroke-opacity=".35"/><text x="160.14999999999998" y="78" text-anchor="middle" font-size="13" font-weight="600" fill="#E6E6E7">Mini Apps</text>
      <rect x="217.59999999999997" y="58" width="90.8" height="30" rx="9" fill="#4FD1C5" fill-opacity=".09" stroke="#4FD1C5" stroke-opacity=".35"/><text x="262.99999999999994" y="78" text-anchor="middle" font-size="13" font-weight="600" fill="#E6E6E7">Webhooks</text>
      <rect x="20" y="98" width="98.89999999999999" height="30" rx="9" fill="#4FD1C5" fill-opacity=".09" stroke="#4FD1C5" stroke-opacity=".35"/><text x="69.44999999999999" y="118" text-anchor="middle" font-size="13" font-weight="600" fill="#E6E6E7">Inline UI</text>
      <rect x="126.89999999999999" y="98" width="90.8" height="30" rx="9" fill="#4FD1C5" fill-opacity=".09" stroke="#4FD1C5" stroke-opacity=".35"/><text x="172.29999999999998" y="118" text-anchor="middle" font-size="13" font-weight="600" fill="#E6E6E7">Payments</text>
      <rect x="20" y="138" width="131.3" height="30" rx="9" fill="#4FD1C5" fill-opacity=".09" stroke="#4FD1C5" stroke-opacity=".35"/><text x="85.65" y="158" text-anchor="middle" font-size="13" font-weight="600" fill="#E6E6E7">Premium emoji</text>
    </g>
    <g transform="translate(800 84)">
      <rect x=".5" y=".5" width="351" height="195" rx="16" fill="#12152C" stroke="#2A2F55"/>
      <circle cx="26" cy="31" r="5" fill="#C4C6F8"/>
      <text x="40" y="36" font-family="ui-monospace, SFMono-Regular, Menlo, Consolas, monospace" font-size="12" letter-spacing="2.2" fill="#C4C6F8">FRONTEND</text>
      <rect x="20" y="58" width="66.5" height="30" rx="9" fill="#C4C6F8" fill-opacity=".09" stroke="#C4C6F8" stroke-opacity=".35"/><text x="53.25" y="78" text-anchor="middle" font-size="13" font-weight="600" fill="#E6E6E7">React</text>
      <rect x="94.5" y="58" width="107" height="30" rx="9" fill="#C4C6F8" fill-opacity=".09" stroke="#C4C6F8" stroke-opacity=".35"/><text x="148" y="78" text-anchor="middle" font-size="13" font-weight="600" fill="#E6E6E7">TypeScript</text>
      <rect x="209.5" y="58" width="90.8" height="30" rx="9" fill="#C4C6F8" fill-opacity=".09" stroke="#C4C6F8" stroke-opacity=".35"/><text x="254.9" y="78" text-anchor="middle" font-size="13" font-weight="600" fill="#E6E6E7">TanStack</text>
      <rect x="20" y="98" width="90.8" height="30" rx="9" fill="#C4C6F8" fill-opacity=".09" stroke="#C4C6F8" stroke-opacity=".35"/><text x="65.4" y="118" text-anchor="middle" font-size="13" font-weight="600" fill="#E6E6E7">Tailwind</text>
      <rect x="118.8" y="98" width="98.89999999999999" height="30" rx="9" fill="#C4C6F8" fill-opacity=".09" stroke="#C4C6F8" stroke-opacity=".35"/><text x="168.25" y="118" text-anchor="middle" font-size="13" font-weight="600" fill="#E6E6E7">Bootstrap</text>
      <rect x="225.7" y="98" width="98.89999999999999" height="30" rx="9" fill="#C4C6F8" fill-opacity=".09" stroke="#C4C6F8" stroke-opacity=".35"/><text x="275.15" y="118" text-anchor="middle" font-size="13" font-weight="600" fill="#E6E6E7">WordPress</text>
    </g>
    <g transform="translate(48 304)">
      <rect x=".5" y=".5" width="351" height="195" rx="16" fill="#12152C" stroke="#2A2F55"/>
      <circle cx="26" cy="31" r="5" fill="#E9BB79"/>
      <text x="40" y="36" font-family="ui-monospace, SFMono-Regular, Menlo, Consolas, monospace" font-size="12" letter-spacing="2.2" fill="#E9BB79">INFRA</text>
      <rect x="20" y="58" width="66.5" height="30" rx="9" fill="#E9BB79" fill-opacity=".09" stroke="#E9BB79" stroke-opacity=".35"/><text x="53.25" y="78" text-anchor="middle" font-size="13" font-weight="600" fill="#E6E6E7">Linux</text>
      <rect x="94.5" y="58" width="82.69999999999999" height="30" rx="9" fill="#E9BB79" fill-opacity=".09" stroke="#E9BB79" stroke-opacity=".35"/><text x="135.85" y="78" text-anchor="middle" font-size="13" font-weight="600" fill="#E6E6E7">systemd</text>
      <rect x="185.2" y="58" width="66.5" height="30" rx="9" fill="#E9BB79" fill-opacity=".09" stroke="#E9BB79" stroke-opacity=".35"/><text x="218.45" y="78" text-anchor="middle" font-size="13" font-weight="600" fill="#E6E6E7">Nginx</text>
      <rect x="20" y="98" width="74.6" height="30" rx="9" fill="#E9BB79" fill-opacity=".09" stroke="#E9BB79" stroke-opacity=".35"/><text x="57.3" y="118" text-anchor="middle" font-size="13" font-weight="600" fill="#E6E6E7">Docker</text>
      <rect x="102.6" y="98" width="107" height="30" rx="9" fill="#E9BB79" fill-opacity=".09" stroke="#E9BB79" stroke-opacity=".35"/><text x="156.1" y="118" text-anchor="middle" font-size="13" font-weight="600" fill="#E6E6E7">Cloudflare</text>
      <rect x="217.6" y="98" width="58.4" height="30" rx="9" fill="#E9BB79" fill-opacity=".09" stroke="#E9BB79" stroke-opacity=".35"/><text x="246.79999999999998" y="118" text-anchor="middle" font-size="13" font-weight="600" fill="#E6E6E7">Bash</text>
      <rect x="20" y="138" width="74.6" height="30" rx="9" fill="#E9BB79" fill-opacity=".09" stroke="#E9BB79" stroke-opacity=".35"/><text x="57.3" y="158" text-anchor="middle" font-size="13" font-weight="600" fill="#E6E6E7">Ubuntu</text>
      <rect x="102.6" y="138" width="82.69999999999999" height="30" rx="9" fill="#E9BB79" fill-opacity=".09" stroke="#E9BB79" stroke-opacity=".35"/><text x="143.95" y="158" text-anchor="middle" font-size="13" font-weight="600" fill="#E6E6E7">Backups</text>
    </g>
    <g transform="translate(424 304)">
      <rect x=".5" y=".5" width="351" height="195" rx="16" fill="#12152C" stroke="#2A2F55"/>
      <circle cx="26" cy="31" r="5" fill="#F28B82"/>
      <text x="40" y="36" font-family="ui-monospace, SFMono-Regular, Menlo, Consolas, monospace" font-size="12" letter-spacing="2.2" fill="#F28B82">VPN &amp; NETWORK</text>
      <rect x="20" y="58" width="58.4" height="30" rx="9" fill="#F28B82" fill-opacity=".09" stroke="#F28B82" stroke-opacity=".35"/><text x="49.2" y="78" text-anchor="middle" font-size="13" font-weight="600" fill="#E6E6E7">Xray</text>
      <rect x="86.4" y="58" width="66.5" height="30" rx="9" fill="#F28B82" fill-opacity=".09" stroke="#F28B82" stroke-opacity=".35"/><text x="119.65" y="78" text-anchor="middle" font-size="13" font-weight="600" fill="#E6E6E7">3x-ui</text>
      <rect x="160.9" y="58" width="107" height="30" rx="9" fill="#F28B82" fill-opacity=".09" stroke="#F28B82" stroke-opacity=".35"/><text x="214.4" y="78" text-anchor="middle" font-size="13" font-weight="600" fill="#E6E6E7">PasarGuard</text>
      <rect x="20" y="98" width="82.69999999999999" height="30" rx="9" fill="#F28B82" fill-opacity=".09" stroke="#F28B82" stroke-opacity=".35"/><text x="61.349999999999994" y="118" text-anchor="middle" font-size="13" font-weight="600" fill="#E6E6E7">Marzban</text>
      <rect x="110.69999999999999" y="98" width="82.69999999999999" height="30" rx="9" fill="#F28B82" fill-opacity=".09" stroke="#F28B82" stroke-opacity=".35"/><text x="152.04999999999998" y="118" text-anchor="middle" font-size="13" font-weight="600" fill="#E6E6E7">Reality</text>
      <rect x="201.39999999999998" y="98" width="115.1" height="30" rx="9" fill="#F28B82" fill-opacity=".09" stroke="#F28B82" stroke-opacity=".35"/><text x="258.95" y="118" text-anchor="middle" font-size="13" font-weight="600" fill="#E6E6E7">SSH tunnels</text>
      <rect x="20" y="138" width="82.69999999999999" height="30" rx="9" fill="#F28B82" fill-opacity=".09" stroke="#F28B82" stroke-opacity=".35"/><text x="61.349999999999994" y="158" text-anchor="middle" font-size="13" font-weight="600" fill="#E6E6E7">Hiddify</text>
      <rect x="110.69999999999999" y="138" width="98.89999999999999" height="30" rx="9" fill="#F28B82" fill-opacity=".09" stroke="#F28B82" stroke-opacity=".35"/><text x="160.14999999999998" y="158" text-anchor="middle" font-size="13" font-weight="600" fill="#E6E6E7">WireGuard</text>
    </g>
    <g transform="translate(800 304)">
      <rect x=".5" y=".5" width="351" height="195" rx="16" fill="#12152C" stroke="#2A2F55"/>
      <circle cx="26" cy="31" r="5" fill="#8C8FD4"/>
      <text x="40" y="36" font-family="ui-monospace, SFMono-Regular, Menlo, Consolas, monospace" font-size="12" letter-spacing="2.2" fill="#8C8FD4">AI &amp; TOOLING</text>
      <rect x="20" y="58" width="115.1" height="30" rx="9" fill="#8C8FD4" fill-opacity=".09" stroke="#8C8FD4" stroke-opacity=".35"/><text x="77.55" y="78" text-anchor="middle" font-size="13" font-weight="600" fill="#E6E6E7">Claude Code</text>
      <rect x="143.1" y="58" width="123.19999999999999" height="30" rx="9" fill="#8C8FD4" fill-opacity=".09" stroke="#8C8FD4" stroke-opacity=".35"/><text x="204.7" y="78" text-anchor="middle" font-size="13" font-weight="600" fill="#E6E6E7">Agent skills</text>
      <rect x="274.29999999999995" y="58" width="42.2" height="30" rx="9" fill="#8C8FD4" fill-opacity=".09" stroke="#8C8FD4" stroke-opacity=".35"/><text x="295.4" y="78" text-anchor="middle" font-size="13" font-weight="600" fill="#E6E6E7">Go</text>
      <rect x="20" y="98" width="139.39999999999998" height="30" rx="9" fill="#8C8FD4" fill-opacity=".09" stroke="#8C8FD4" stroke-opacity=".35"/><text x="89.69999999999999" y="118" text-anchor="middle" font-size="13" font-weight="600" fill="#E6E6E7">GitHub Actions</text>
      <rect x="167.39999999999998" y="98" width="50.3" height="30" rx="9" fill="#8C8FD4" fill-opacity=".09" stroke="#8C8FD4" stroke-opacity=".35"/><text x="192.54999999999998" y="118" text-anchor="middle" font-size="13" font-weight="600" fill="#E6E6E7">Git</text>
      <rect x="225.7" y="98" width="50.3" height="30" rx="9" fill="#8C8FD4" fill-opacity=".09" stroke="#8C8FD4" stroke-opacity=".35"/><text x="250.85" y="118" text-anchor="middle" font-size="13" font-weight="600" fill="#E6E6E7">MCP</text>
      <rect x="20" y="138" width="66.5" height="30" rx="9" fill="#8C8FD4" fill-opacity=".09" stroke="#8C8FD4" stroke-opacity=".35"/><text x="53.25" y="158" text-anchor="middle" font-size="13" font-weight="600" fill="#E6E6E7">Codex</text>
    </g>
</svg>
